<svg xmlns="http://www.w3.org/2000/svg" viewBox="0 0 24 24" fill="currentColor">
  <path d="M12 .5C5.7.5.7 5.6.7 12c0 5.1 3.3 9.5 7.8 11 .6.1.8-.3.8-.6v-2.3c-3.2.7-3.9-1.4-3.9-1.4-.6-1.4-1.4-1.8-1.4-1.8-1.2-.8.1-.8.1-.8 1.3.1 2 .1 2 .1 1.2 2 3.2 1.4 4 .9.1-.9.5-1.4.8-1.7-2.6-.3-5.4-1.3-5.4-6A4.7 4.7 0 016.8 6c-.1-.3-.5-1.6.1-3.2 0 0 1-.3 3.3 1.2a11.6 11.6 0 016 0C18.5 2.5 19.5 2.8 19.5 2.8c.6 1.6.2 2.9.1 3.2A4.7 4.7 0 0121 9.6c0 4.7-2.8 5.7-5.4 6 .5.4.9 1.1.9 2.2v3.3c0 .3.2.7.8.6 4.5-1.5 7.8-5.9 7.8-11C23.3 5.6 18.3.5 12 .5z"></path>
</svg>